# AST/ASF file generated using VICON BodyLanguage
# -----------------------------------------------
:version 1.10
:name VICON
:units
  mass 1.0
  length 0.45
  angle deg
:documentation
   .ast/.asf automatically generated from VICON data using
   VICON BodyBuilder and BodyLanguage model FoxedUp or BRILLIANT.MOD
:root
   order TX TY TZ RX RY RZ
   axis XYZ
   position 0 0 0  
   orientation 0 0 0 
:bonedata
  begin
     id 1 
     name lhipjoint
     direction 0.573633 -0.743009 0.344793 
     length 2.46257 
     axis 0 0 0  XYZ
  end
  begin
     id 2 
     name lfemur
     direction 0.34202 -0.939693 0  
     length 7.3842  
     axis 0 0 20  XYZ
    dof rx ry rz
    limits (-160.0 20.0)
           (-70.0 70.0)
           (-60.0 70.0)
  end
  begin
     id 3 
     name ltibia
     direction 0.34202 -0.939693 0   
     length 7.50407   
     axis 0 0 20   XYZ
    dof rx
    limits (-10.0 170.0)
  end
  begin
     id 4 
     name lfoot
     direction 0.110749 -0.304281 0.946123   
     length 1.95925   
     axis -90 7.62852e-016 20   XYZ
    dof rx rz
    limits (-45.0 90.0)
           (-70.0 20.0)
  end
  begin
     id 5 
     name ltoes
     direction 1.53554e-011 -4.21843e-011 1   
     length 0.978318   
     axis -90 7.62852e-016 20   XYZ
    dof rx
    limits (-90.0 20.0)
  end
  begin
     id 6 
     name rhipjoint
     direction -0.488109 -0.791693 0.367385   
     length 2.31113  
     axis 0 0 0  XYZ 
  end
  begin
     id 7 
     name rfemur
     direction -0.34202 -0.939693 0   
     length 7.40965   
     axis 0 0 -20   XYZ
    dof rx ry rz
    limits (-160.0 20.0)
           (-70.0 70.0)
           (-70.0 60.0)
  end
  begin
     id 8 
     name rtibia
     direction -0.34202 -0.939693 0   
     length 7.55548   
     axis 0 0 -20   XYZ
    dof rx
    limits (-10.0 170.0)
 end
 begin
     id 9 
     name rfoot
     direction -0.127594 -0.350561 0.927808   
     length 2.07199  
     axis -90 -7.62852e-016 -20   XYZ
    dof rx rz
    limits (-45.0 90.0)
           (-20.0 70.0)
  end
  begin
     id 10 
     name rtoes
     direction -1.53542e-011 -4.21909e-011 1   
     length 1.02667   
     axis -90 -7.62852e-016 -20   XYZ
    dof rx
    limits (-90.0 20.0)
  end
  begin
     id 11 
     name lowerback
     direction -0.0103342 0.997298 -0.0727278   
     length 2.02836   
     axis 0 0 0   XYZ
    dof rx ry rz
    limits (-20.0 45.0)
           (-30.0 30.0)
           (-30.0 30.0)
  end
  begin
     id 12 
     name upperback
     direction 0.0171146 0.999786 -0.011606   
     length 2.03179   
     axis 0 0 0   XYZ
    dof rx ry rz
    limits (-20.0 45.0)
           (-30.0 30.0)
           (-30.0 30.0)
  end
  begin
     id 13 
     name thorax
     direction 0.0216927 0.999513 0.0224343   
     length 2.03882   
     axis 0 0 0   XYZ
    dof rx ry rz
    limits (-20.0 45.0)
           (-30.0 30.0)
           (-30.0 30.0)
  end
  begin
     id 14 
     name lowerneck
     direction 0.000989287 0.993907 0.110221   
     length 1.75428   
     axis 0 0 0   XYZ
    dof rx ry rz
    limits (-20.0 45.0)
           (-30.0 30.0)
           (-30.0 30.0)
  end
  begin
     id 15 
     name upperneck
     direction -0.0172474 0.994813 -0.100253   
     length 1.77058   
     axis 0 0 0   XYZ
    dof rx ry rz
    limits (-20.0 45.0)
           (-30.0 30.0)
           (-30.0 30.0)
  end
  begin
     id 16
     name head
     direction -0.00486455 0.99894 -0.0457663  
     length 1.77427  
     axis 0 0 0   XYZ
    dof rx ry rz
    limits (-20.0 45.0)
           (-30.0 30.0)
           (-30.0 30.0)
  end
  begin
     id 17 
     name lclavicle
     direction 0.927314 0.333734 -0.169441  
     length 3.97584  
     axis 0 0 0   XYZ
    dof ry rz
    limits (-20.0 10.0)
           (0.0 20.0)
  end
  begin
     id 18 
     name lhumerus
     direction 1 -4.48965e-011 -3.25313e-028   
     length 4.76468   
     axis 180 -30 -90   XYZ
    dof rx ry rz
    limits (-60.0 90.0)
           (-90.0 90.0)
           (-90.0 90.0)
  end
  begin
     id 19
     name lradius
     direction 1 -4.48969e-011 -2.8465e-028   
     length 3.52712   
     axis -180 -30 -90   XYZ
    dof rx
    limits (-10.0 170.0)
  end
  begin
     id 20
     name lwrist
     direction 1 -4.4896e-011 -7.78665e-028   
     length 1.76356   
     axis 1.91374e-015 90 90   XYZ
    dof ry
    limits (-180.0 0.0)
 end
  begin
     id 21 
     name lhand
     direction 1 -4.48959e-011 -1.55733e-027   
     length 0.859564   
     axis 9.9371e-016 90 90   XYZ
    dof rx rz
    limits (-90.0 90.0)
           (-45.0 45.0)
  end
  begin
     id 22 
     name lfingers
     direction 1 -4.48965e-011 -3.11466e-027   
     length 0.693002   
     axis 1.98742e-015 90 90   XYZ
    dof rx
    limits (0.0 90.0)
  end
  begin
     id 23
     name lthumb
     direction 0.707107 -6.34948e-011 0.707107   
     length 0.995017   
     axis -90 45 2.85299e-015   XYZ
    dof rx rz
    limits (-45.0 45.0)
           (-45.0 45.0)
  end
  begin
     id 24 
     name rclavicle
     direction -0.899388 0.348209 -0.264294   
     length 3.68366  
     axis 0 0 0   XYZ 
    dof ry rz
    limits (-10.0 20.0)
           (-20.0 0.0)
  end
  begin
     id 25 
     name rhumerus
     direction -1 -4.48965e-011 -3.01536e-027  
     length 4.90577   
     axis 180 30 90   XYZ
    dof rx ry rz
    limits (-90.0 60.0)
           (-90.0 90.0)
           (-90.0 90.0)
  end
  begin
     id 26 
     name rradius
     direction -1 -4.48966e-011 3.93291e-027   
     length 3.42692   
     axis -180 30 90   XYZ
    dof rx
    limits (-10.0 170.0)
  end
  begin
     id 27 
     name rwrist
     direction -1 -4.48969e-011 -7.78665e-028   
     length 1.71346   
     axis 1.91374e-015 -90 -90   XYZ
    dof ry
    limits (-180.0 0.0)
  end
  begin
     id 28
     name rhand
     direction -1 -4.48967e-011 -1.55733e-027   
     length 0.740957   
     axis 9.9371e-016 -90 -90   XYZ
    dof rx rz
    limits (-90.0 90.0)
           (-45.0 45.0)
  end
  begin
     id 29
     name rfingers
     direction -1 -4.48949e-011 -3.11466e-027   
     length 0.597378   
     axis 1.98742e-015 -90 -90   XYZ
    dof rx
    limits (0.0 90.0)
  end
  begin
     id 30
     name rthumb
     direction -0.707107 -6.34931e-011 0.707107   
     length 0.857719   
     axis -90 -45 -2.85299e-015   XYZ
    dof rx rz
    limits (-45.0 45.0)
           (-45.0 45.0)
  end
:hierarchy
  begin
    root lhipjoint rhipjoint lowerback
    lhipjoint lfemur
    lfemur ltibia
    ltibia lfoot
    lfoot ltoes
    rhipjoint rfemur
    rfemur rtibia
    rtibia rfoot
    rfoot rtoes
    lowerback upperback
    upperback thorax
    thorax lowerneck lclavicle rclavicle
    lowerneck upperneck
    upperneck head
    lclavicle lhumerus
    lhumerus lradius
    lradius lwrist
    lwrist lhand lthumb
    lhand lfingers
    rclavicle rhumerus
    rhumerus rradius
    rradius rwrist
    rwrist rhand rthumb
    rhand rfingers
  end

#!OML:ASF E:\I on waltz\AllaLogoMonkeySwing\Project 1\Capture day 1\Session 1\Subject1.ASF
:FULLY-SPECIFIED
:DEGREES
176
root 1.25394 8.88813 -1.69507 -30.6261 0.0297039 1.37177
lowerback 32.3191 1.79679 -2.56233
upperback 11.2841 1.60294 1.19471
thorax -4.88657 0.711036 2.25555
lowerneck -11.8973 3.66299 1.89861
upperneck 6.1557 5.04601 -4.85532
head 3.94465 2.27548 -1.44687
rclavicle -1.44119e-015 1.59028e-015
rhumerus -28.8082 2.58418 -89.152
rradius 90.4681
rwrist -0.181293
rhand -23.274 -36.2444
rfingers 7.12502
rthumb 3.17847 -66.2004
lclavicle -1.44119e-015 1.59028e-015
lhumerus -31.7415 5.91501 93.4067
lradius 90.9887
lwrist 9.01787
lhand -20.9797 -30.6784
lfingers 7.12502
lthumb 5.39395 -0.767044
rfemur -66.2332 -18.1204 19.6931
rtibia 116.362
rfoot -19.7289 0.638735
rtoes 27.2304
lfemur -62.9722 23.6448 -16.8325
ltibia 116.304
lfoot -27.9743 -15.0053
ltoes -9.46614
177
root 1.25454 8.89539 -1.69038 -30.4323 0.00896135 1.26654
lowerback 32.6235 1.76153 -2.45773
upperback 11.2992 1.58015 1.17923
thorax -5.00006 0.702629 2.1828
lowerneck -11.6258 3.69951 1.88727
upperneck 5.51848 5.05029 -4.52616
head 4.10976 2.31642 -1.49818
rclavicle -2.98177e-015 1.59028e-015
rhumerus -29.1233 1.29083 -88.6701
rradius 90.2018
rwrist -0.887549
rhand -23.2217 -37.0689
rfingers 7.12502
rthumb 3.22903 -67.0242
lclavicle -2.98177e-015 1.59028e-015
lhumerus -31.7211 7.45145 92.4747
lradius 89.9273
lwrist 9.59362
lhand -20.6438 -29.0709
lfingers 7.12502
lthumb 5.71829 0.831916
rfemur -66.4038 -18.0458 19.8559
rtibia 116.331
rfoot -19.6998 0.631689
rtoes 27.3979
lfemur -63.2015 23.5762 -16.7937
ltibia 116.314
lfoot -27.9155 -14.9862
ltoes -9.90617
178
root 1.25708 8.90521 -1.68601 -30.1688 0.0384195 1.24772
lowerback 33.275 1.76388 -2.42944
upperback 10.9614 1.5604 1.22175
thorax -5.05908 0.68756 2.04322
lowerneck -11.4436 3.711 1.89818
upperneck 5.23606 5.04228 -4.3884
head 3.96683 2.32532 -1.45632
rclavicle -7.40473e-015 2.18663e-015
rhumerus -29.3107 0.0167431 -88.077
rradius 89.7544
rwrist -1.13375
rhand -21.6514 -38.9539
rfingers 7.12502
rthumb 4.74536 -68.8807
lclavicle -7.40473e-015 2.18663e-015
lhumerus -31.621 8.87241 91.5404
lradius 88.5494
lwrist 9.88785
lhand -20.4149 -28.5703
lfingers 7.12502
lthumb 5.93921 1.32641
rfemur -66.654 -17.9647 19.9036
rtibia 116.302
rfoot -19.656 0.624743
rtoes 27.4653
lfemur -63.5037 23.457 -16.9207
ltibia 116.311
lfoot -27.8476 -14.9514
ltoes -9.72519
179
root 1.26079 8.92003 -1.68217 -29.8938 0.0132349 1.20351
lowerback 33.5781 1.7793 -2.33326
upperback 11.0002 1.60175 1.2111
thorax -5.12823 0.709382 1.96239
lowerneck -11.1666 3.62895 1.8467
upperneck 4.84893 4.91715 -4.26099
head 3.76306 2.27649 -1.41697
rclavicle -3.67752e-015 2.38542e-015
rhumerus -29.4989 -1.1975 -87.3525
rradius 89.1632
rwrist -1.18176
rhand -20.9425 -37.9647
rfingers 7.12502
rthumb 5.42991 -67.8751
lclavicle -3.67752e-015 2.38542e-015
lhumerus -31.5301 10.1169 90.6383
lradius 86.9264
lwrist 9.67469
lhand -20.3165 -28.459
lfingers 7.12502
lthumb 6.03423 1.43508
rfemur -66.8692 -17.7849 19.9974
rtibia 116.238
rfoot -19.6157 0.567032
rtoes 27.5413
lfemur -63.7683 23.3745 -16.9839
ltibia 116.291
lfoot -27.9181 -14.8701
ltoes -9.73338
180
root 1.26379 8.93571 -1.67684 -29.591 -0.033842 1.16318
lowerback 33.8977 1.81047 -2.2432
upperback 11.0525 1.66239 1.219
thorax -5.18931 0.739621 1.8974
lowerneck -10.8709 3.54314 1.72701
upperneck 4.38217 4.79308 -4.10973
head 3.52648 2.22854 -1.35764
rclavicle -4.96962e-016 2.18663e-015
rhumerus -29.7053 -2.17846 -86.5734
rradius 88.6321
rwrist -1.26103
rhand -20.2558 -38.0916
rfingers 7.12502
rthumb 6.09288 -67.984
lclavicle -4.96962e-016 2.18663e-015
lhumerus -31.4929 11.1809 89.713
lradius 85.1806
lwrist 8.98752
lhand -20.1956 -28.1833
lfingers 7.12502
lthumb 6.15098 1.70738
rfemur -67.1182 -17.575 20.1084
rtibia 116.162
rfoot -19.5542 0.490381
rtoes 27.665
lfemur -64.0107 23.2592 -17.0303
ltibia 116.284
lfoot -28.0877 -14.7683
ltoes -9.77194
181
root 1.26403 8.94977 -1.67017 -29.2648 -0.00423276 1.09533
lowerback 34.2638 1.79714 -2.21329
upperback 11.1436 1.64577 1.21814
thorax -5.22107 0.730472 1.88116
lowerneck -10.6123 3.52895 1.73285
upperneck 3.83568 4.75141 -4.04262
head 3.28176 2.22013 -1.34321
rclavicle -1.49089e-015 4.77083e-015
rhumerus -29.8477 -2.89311 -85.9428
rradius 88.1652
rwrist -1.37294
rhand -19.6578 -39.385
rfingers 7.12502
rthumb 6.67016 -69.2599
lclavicle -1.49089e-015 4.77083e-015
lhumerus -31.4345 12.2302 88.7292
lradius 83.3746
lwrist 7.89503
lhand -19.8502 -27.1803
lfingers 7.12502
lthumb 6.4844 2.70044
rfemur -67.4167 -17.4864 20.2346
rtibia 116.114
rfoot -19.5238 0.412477
rtoes 27.6831
lfemur -64.3068 23.0762 -17.1048
ltibia 116.278
lfoot -28.2446 -14.6715
ltoes -10.0566
